<svg xmlns="http://www.w3.org/2000/svg" viewBox="0 0 24 24"><defs><style>.cls-1{fill:none;}.cls-2{fill:#505050;}</style></defs><title>User</title><g id="Trim_Area" data-name="Trim Area"><rect class="cls-1" width="24" height="24"/></g><g id="Names"><path class="cls-2" d="M12,2A10,10,0,1,0,22,12,10,10,0,0,0,12,2ZM5.06,17.72a7.93,7.93,0,0,0,.62.68A7.93,7.93,0,0,1,5.06,17.72Zm6,3.22a8,8,0,0,0,2,0,8,8,0,0,1-2,0ZM5.89,18.59l.48.42Zm.76.63c.16.12.31.23.47.33C7,19.45,6.81,19.34,6.65,19.22Zm.79.53.49.27Zm.84.43.51.22Zm.87.35.56.16Zm.92.26.63.11Zm3.23.11.63-.11Zm1-.21.56-.16Zm.92-.29.51-.22Zm.86-.38.49-.27Zm.81-.47c.16-.1.31-.21.47-.33C17.19,19.34,17,19.45,16.88,19.55Zm.75-.54.48-.42Zm.69-.61a7.93,7.93,0,0,0,.62-.68A7.93,7.93,0,0,1,18.32,18.4Zm.62-.68a1.17,1.17,0,0,0-.93-.86l-5-.72a8.2,8.2,0,0,0-2,0l-5,.72a1.17,1.17,0,0,0-.93.86A9,9,0,1,1,21,12,8.94,8.94,0,0,1,18.94,17.72Z"/><path class="cls-2" d="M12,6A3,3,0,0,0,9,9v3a3,3,0,0,0,6,0V9A3,3,0,0,0,12,6Z"/></g></svg>